<svg width="257" height="104" viewBox="0 0 257 104" fill="none" xmlns="http://www.w3.org/2000/svg">
<rect width="257" height="104" fill="white"/>
<path d="M0 0V104H34.0625V71.0625L42.1562 62.5312L67.125 104H108H163H194H196.906V71.6562H214.031C243.784 71.6562 257 57.4826 257 35.0938C257 13.716 242.627 0 212.875 0H194H163H103.969H63.9688L34.0625 33.6562V0H0ZM111.281 3.5L119.406 19.7188C120.811 19.5281 122.261 19.4375 123.719 19.4375C125.369 19.4375 126.98 19.5379 128.562 19.7812L136.719 3.5L135.656 21.75C138.48 22.9016 141.09 24.4693 143.438 26.3438L158.781 16.2188L148.656 31.5938C150.494 33.941 152.003 36.5319 153.125 39.3438L171.5 38.2812L155.031 46.5312C155.247 48.0238 155.375 49.5414 155.375 51.0938C155.375 52.5803 155.261 54.0368 155.062 55.4688L171.5 63.7188L153.188 62.6562C152.072 65.4952 150.562 68.1301 148.719 70.5L158.781 85.7812L143.562 75.75C141.184 77.6687 138.529 79.2658 135.656 80.4375L136.719 98.5L128.656 82.375C127.043 82.6282 125.403 82.75 123.719 82.75C122.23 82.75 120.747 82.6676 119.312 82.4688L111.281 98.5L112.312 80.6562C109.338 79.5092 106.588 77.9098 104.125 75.9688L89.2188 85.7812L99.0312 70.9062C97.0497 68.4424 95.4287 65.6766 94.25 62.6875L76.5 63.7188L92.375 55.75C92.1504 54.228 92.0312 52.6782 92.0312 51.0938C92.0312 49.4436 92.1629 47.8321 92.4062 46.25L76.5 38.2812L94.3125 39.3125C95.4975 36.354 97.1203 33.6266 99.0938 31.1875L89.2188 16.2188L104.25 26.125C106.689 24.2222 109.408 22.6601 112.344 21.5312L111.281 3.5ZM196.906 24.2812H206.562C213.749 24.2812 224.656 25.5722 224.656 35.25C224.656 44.2056 218.905 47.375 211 47.375H196.906V24.2812Z" fill="#28577F"/>
</svg>
