<svg width="68" height="33" viewBox="0 0 68 33" fill="none" xmlns="http://www.w3.org/2000/svg">
<path d="M12 1H56C62.0751 1 67 5.92487 67 12V21C67 27.0751 62.0751 32 56 32H12C5.92487 32 1 27.0751 1 21V12C1 5.92487 5.92487 1 12 1Z" fill="#E3E8EF" stroke="#E3E8EF" stroke-width="2"/>
<path d="M18.7997 21V12.2727H22.294C23.2571 12.2727 23.9801 12.483 24.4631 12.9034C24.9489 13.321 25.1918 13.8565 25.1918 14.5099C25.1918 15.0241 25.0426 15.4403 24.7443 15.7585C24.446 16.0739 24.0696 16.2827 23.6151 16.3849V16.4702C23.9474 16.4844 24.2585 16.5781 24.5483 16.7514C24.8409 16.9247 25.0781 17.1662 25.2599 17.4759C25.4418 17.7855 25.5327 18.1562 25.5327 18.5881C25.5327 19.0511 25.4176 19.4645 25.1875 19.8281C24.9602 20.1918 24.6236 20.4787 24.1776 20.6889C23.7315 20.8963 23.1818 21 22.5284 21H18.7997ZM20.6449 19.4915H22.1491C22.6662 19.4915 23.0412 19.392 23.2741 19.1932C23.5099 18.9943 23.6278 18.7315 23.6278 18.4048C23.6278 18.044 23.4986 17.7486 23.2401 17.5185C22.9844 17.2884 22.6349 17.1733 22.1918 17.1733H20.6449V19.4915ZM20.6449 15.9247H22.0128C22.3906 15.9247 22.7045 15.8267 22.9545 15.6307C23.2045 15.4318 23.3295 15.1605 23.3295 14.8168C23.3295 14.5014 23.2173 14.2472 22.9929 14.054C22.7713 13.8608 22.456 13.7642 22.0469 13.7642H20.6449V15.9247ZM26.7332 21V12.2727H28.5784V19.4787H32.3198V21H26.7332ZM41.2217 16.6364C41.2217 17.5881 41.0413 18.3977 40.6805 19.0653C40.3226 19.733 39.8353 20.2429 39.2189 20.5952C38.6024 20.9446 37.9078 21.1193 37.1351 21.1193C36.3595 21.1193 35.6635 20.9432 35.047 20.5909C34.4305 20.2386 33.9433 19.7287 33.5853 19.0611C33.2274 18.3906 33.0484 17.5824 33.0484 16.6364C33.0484 15.6847 33.2274 14.875 33.5853 14.2074C33.9433 13.5398 34.4305 13.0312 35.047 12.6818C35.6635 12.3295 36.3595 12.1534 37.1351 12.1534C37.9078 12.1534 38.6024 12.3295 39.2189 12.6818C39.8353 13.0312 40.3226 13.5398 40.6805 14.2074C41.0413 14.875 41.2217 15.6847 41.2217 16.6364ZM39.351 16.6364C39.351 15.7102 39.1493 15.0043 38.7459 14.5185C38.3424 14.0298 37.8055 13.7855 37.1351 13.7855C36.4646 13.7855 35.9277 14.0298 35.5243 14.5185C35.1209 15.0043 34.9192 15.7102 34.9192 16.6364C34.9192 17.5597 35.1209 18.2656 35.5243 18.7543C35.9277 19.2429 36.4646 19.4872 37.1351 19.4872C37.8055 19.4872 38.3424 19.2429 38.7459 18.7543C39.1493 18.2656 39.351 17.5597 39.351 16.6364ZM48.3754 15.0938C48.2589 14.6847 48.043 14.3651 47.7276 14.1349C47.4151 13.902 47.0217 13.7855 46.5472 13.7855C45.8796 13.7855 45.3384 14.0327 44.9236 14.527C44.5117 15.0185 44.3057 15.7187 44.3057 16.6278C44.3057 17.5398 44.5089 18.2443 44.9151 18.7415C45.3214 19.2386 45.8711 19.4872 46.5643 19.4872C47.1779 19.4872 47.6594 19.3281 48.0089 19.0099C48.3611 18.6889 48.543 18.2585 48.5543 17.7188H46.6793V16.3295H50.3313V17.429C50.3313 18.1932 50.1694 18.8523 49.8455 19.4062C49.5217 19.9574 49.0756 20.3807 48.5075 20.6761C47.9421 20.9716 47.2915 21.1193 46.5557 21.1193C45.7376 21.1193 45.0188 20.9389 44.3995 20.5781C43.7802 20.2145 43.2972 19.6989 42.9506 19.0312C42.6069 18.3608 42.435 17.5653 42.435 16.6449C42.435 15.7017 42.6154 14.8949 42.9762 14.2244C43.337 13.554 43.8256 13.0412 44.4421 12.6861C45.0586 12.331 45.7504 12.1534 46.5174 12.1534C47.1765 12.1534 47.7731 12.2784 48.3072 12.5284C48.8413 12.7784 49.2788 13.125 49.6197 13.5682C49.9606 14.0085 50.1708 14.517 50.2504 15.0938H48.3754Z" fill="#DD7888"/>
</svg>
