<svg fill="none" height="33" viewBox="0 0 68 33" width="68" xmlns="http://www.w3.org/2000/svg"><path d="m12 1h44c6.0751 0 11 4.92487 11 11v20h-66v-20c0-6.07513 4.92487-11 11-11z" fill="#e3e8ef" stroke="#e3e8ef" stroke-width="2"/><path d="m18.7997 22.1351v-8.7272h3.4943c.9631 0 1.6861.2102 2.1691.6306.4858.4177.7287.9532.7287 1.6066 0 .5142-.1492.9304-.4475 1.2486-.2983.3153-.6747.5241-1.1292.6264v.0852c.3323.0142.6434.108.9332.2813.2926.1732.5298.4147.7116.7244.1819.3096.2728.6804.2728 1.1122 0 .4631-.1151.8764-.3452 1.2401-.2273.3636-.5639.6505-1.0099.8608-.4461.2073-.9958.311-1.6492.311zm1.8452-1.5085h1.5042c.5171 0 .8921-.0994 1.125-.2983.2358-.1989.3537-.4616.3537-.7883 0-.3608-.1292-.6563-.3877-.8864-.2557-.2301-.6052-.3452-1.0483-.3452h-1.5469zm0-3.5668h1.3679c.3778 0 .6917-.098.9417-.294.25-.1989.375-.4702.375-.8139 0-.3153-.1122-.5696-.3366-.7628-.2216-.1932-.5369-.2898-.946-.2898h-1.402zm6.0883 5.0753v-8.7272h1.8452v7.2059h3.7414v1.5213zm14.4885-4.3636c0 .9517-.1804 1.7614-.5412 2.429-.3579.6676-.8452 1.1775-1.4616 1.5298-.6165.3494-1.3111.5242-2.0838.5242-.7756 0-1.4716-.1762-2.0881-.5285-.6165-.3522-1.1037-.8622-1.4617-1.5298-.3579-.6704-.5369-1.4787-.5369-2.4247 0-.9517.179-1.7614.5369-2.429.358-.6676.8452-1.1761 1.4617-1.5255.6165-.3523 1.3125-.5285 2.0881-.5285.7727 0 1.4673.1762 2.0838.5285.6164.3494 1.1037.8579 1.4616 1.5255.3608.6676.5412 1.4773.5412 2.429zm-1.8707 0c0-.9261-.2017-1.6321-.6051-2.1179-.4035-.4886-.9404-.733-1.6108-.733-.6705 0-1.2074.2444-1.6108.733-.4034.4858-.6051 1.1918-.6051 2.1179 0 .9233.2017 1.6293.6051 2.1179s.9403.7329 1.6108.7329c.6704 0 1.2073-.2443 1.6108-.7329.4034-.4886.6051-1.1946.6051-2.1179zm9.0244-1.5426c-.1165-.4091-.3324-.7287-.6478-.9588-.3125-.233-.7059-.3495-1.1804-.3495-.6676 0-1.2088.2472-1.6236.7415-.4119.4915-.6179 1.1918-.6179 2.1009 0 .9119.2032 1.6164.6094 2.1136.4063.4972.956.7457 1.6492.7457.6136 0 1.0951-.159 1.4446-.4772.3522-.321.5341-.7514.5454-1.2912h-1.875v-1.3892h3.652v1.0994c0 .7642-.1619 1.4233-.4858 1.9773-.3238.5511-.7699.9744-1.338 1.2699-.5654.2954-1.216.4432-1.9518.4432-.8181 0-1.5369-.1804-2.1562-.5412-.6193-.3637-1.1023-.8793-1.4489-1.5469-.3437-.6705-.5156-1.4659-.5156-2.3864 0-.9432.1804-1.75.5412-2.4204.3608-.6705.8494-1.1833 1.4659-1.5384s1.3083-.5327 2.0753-.5327c.6591 0 1.2557.125 1.7898.375s.9716.5966 1.3125 1.0398c.3409.4404.5511.9489.6307 1.5256z" fill="#dd7888"/></svg>